<svg xmlns="http://www.w3.org/2000/svg" xmlns:osb="http://www.openswatchbook.org/uri/2009/osb" xmlns:svg="http://www.w3.org/2000/svg" id="svg11300" width="16" height="16" version="1.0" style="display:inline;enable-background:new"><defs id="defs3"><linearGradient id="linearGradient5606" osb:paint="solid"><stop id="stop5608" offset="0" style="stop-color:#000;stop-opacity:1"/></linearGradient></defs><metadata id="metadata4"/><g style="display:inline" id="layer1" transform="translate(0,-284)"><path style="display:inline;opacity:1;fill:#bebebe;fill-opacity:1;stroke:none;stroke-width:2;stroke-linecap:round;stroke-linejoin:round;stroke-miterlimit:4;stroke-dasharray:none;stroke-opacity:1;enable-background:new" id="path4469-2" d="M 5 0 A 4 4 0 0 0 1 4 A 4 4 0 0 0 1.1171875 4.9394531 A 8 8 0 0 1 7.6464844 1.0117188 A 4 4 0 0 0 5 0 z M 11 0 A 4 4 0 0 0 8.3476562 1.0175781 A 8 8 0 0 1 14.882812 4.9414062 A 4 4 0 0 0 15 4 A 4 4 0 0 0 11 0 z M 8 2 A 7 7 0 0 0 1 9 A 7 7 0 0 0 2.53125 13.357422 A 1.5 1.5 0 0 0 2 14.5 A 1.5 1.5 0 0 0 3.5 16 A 1.5 1.5 0 0 0 4.8105469 15.230469 A 7 7 0 0 0 8 16 A 7 7 0 0 0 11.189453 15.222656 A 1.5 1.5 0 0 0 12.5 16 A 1.5 1.5 0 0 0 14 14.5 A 1.5 1.5 0 0 0 13.474609 13.361328 A 7 7 0 0 0 15 9 A 7 7 0 0 0 8 2 z M 8 4 A 5 5 0 0 1 13 9 A 5 5 0 0 1 8 14 A 5 5 0 0 1 3 9 A 5 5 0 0 1 8 4 z M 9.9804688 5.9902344 A 1.0001 1.0001 0 0 0 9.2929688 6.2929688 L 7.8027344 7.7832031 L 6.4472656 7.1054688 A 1.0001152 1.0001152 0 0 0 5.5527344 8.8945312 L 7.5527344 9.8945312 A 1.0001 1.0001 0 0 0 8.7070312 9.7070312 L 10.707031 7.7070312 A 1.0001 1.0001 0 0 0 9.9804688 5.9902344 z" transform="translate(0,284)"/></g></svg>