<svg xmlns="http://www.w3.org/2000/svg" xmlns:osb="http://www.openswatchbook.org/uri/2009/osb" xmlns:svg="http://www.w3.org/2000/svg" id="svg11300" width="16" height="16" version="1.0" style="display:inline;enable-background:new"><defs id="defs3"><linearGradient id="linearGradient5606" osb:paint="solid"><stop id="stop5608" offset="0" style="stop-color:#000;stop-opacity:1"/></linearGradient></defs><metadata id="metadata4"/><g style="display:inline" id="layer1" transform="translate(0,-284)"><path style="opacity:1;fill:#bebebe;fill-opacity:1;stroke:none;stroke-width:1.99999976;stroke-linecap:round;stroke-linejoin:round;stroke-miterlimit:4;stroke-dasharray:none;stroke-opacity:1" id="rect4702" d="m 11.583739,284 c -0.766805,0 -1.535337,0.29325 -2.1229018,0.88083 l -2.1209481,2.12101 0.00586,0.006 2.6542509,-0.008 0.874803,-0.70502 c 0.39171,-0.39173 1.024208,-0.39173 1.415919,0 l 1.413964,1.41418 c 0.391712,0.39173 0.391712,1.02424 0,1.41596 l -4.5798614,4.57792 c -0.3917111,0.39172 -1.0222554,0.39172 -1.4139655,0 l -0.706983,-0.70701 -1.4139655,1.41401 0.706983,0.70701 c 1.175131,1.17517 3.0667659,1.17517 4.2418954,0 l 4.579863,-4.57792 c 1.175131,-1.17518 1.175131,-3.06882 0,-4.24399 l -1.413966,-1.41401 c -0.587564,-0.58758 -1.354143,-0.88083 -2.120948,-0.88083 z m -3.9977047,3.99798 c -0.7668052,0 -1.5333832,0.29325 -2.1209482,0.88083 l -4.58373785,4.5818 c -1.175131,1.17518 -1.175131,3.06883 0,4.244 l 1.41396505,1.41401 c 1.17513,1.17517 3.0687189,1.17517 4.243849,0 L 8.6548005,297 H 6.0000002 l -0.874803,0.70461 c -0.3917099,0.39172 -1.0242079,0.39172 -1.415918,0 L 2.2953133,296.2906 c -0.39171,-0.39173 -0.39171,-1.02426 0,-1.41598 l 4.5837379,-4.5818 c 0.3917115,-0.39173 1.0222556,-0.39173 1.4139659,0 L 9,290.99984 l 1.413965,-1.41403 -0.7069825,-0.707 c -0.5875653,-0.58758 -1.3541434,-0.88083 -2.1209482,-0.88083 z"/><rect style="opacity:1;fill:#bebebe;fill-opacity:1;stroke:none;stroke-width:2;stroke-linecap:round;stroke-linejoin:round;stroke-miterlimit:4;stroke-dasharray:none;stroke-opacity:1" id="rect4624" width="10" height="10" x="-24" y="279"/></g></svg>