<svg xmlns="http://www.w3.org/2000/svg" xmlns:osb="http://www.openswatchbook.org/uri/2009/osb" xmlns:svg="http://www.w3.org/2000/svg" id="svg11300" width="16" height="16" version="1.0" style="display:inline;enable-background:new"><defs id="defs3"><linearGradient id="linearGradient5606" osb:paint="solid"><stop id="stop5608" offset="0" style="stop-color:#000;stop-opacity:1"/></linearGradient></defs><metadata id="metadata4"/><g style="display:inline" id="layer1" transform="translate(0,-284)"><path style="color:#000;font-style:normal;font-variant:normal;font-weight:400;font-stretch:normal;font-size:medium;line-height:normal;font-family:sans-serif;font-variant-ligatures:normal;font-variant-position:normal;font-variant-caps:normal;font-variant-numeric:normal;font-variant-alternates:normal;font-feature-settings:normal;text-indent:0;text-align:start;text-decoration:none;text-decoration-line:none;text-decoration-style:solid;text-decoration-color:#000;letter-spacing:normal;word-spacing:normal;text-transform:none;writing-mode:lr-tb;direction:ltr;text-orientation:mixed;dominant-baseline:auto;baseline-shift:baseline;text-anchor:start;white-space:normal;shape-padding:0;clip-rule:nonzero;display:inline;overflow:visible;visibility:visible;opacity:1;isolation:auto;mix-blend-mode:normal;color-interpolation:sRGB;color-interpolation-filters:linearRGB;solid-color:#000;solid-opacity:1;vector-effect:none;fill:#bebebe;fill-opacity:1;fill-rule:nonzero;stroke:none;stroke-width:2;stroke-linecap:butt;stroke-linejoin:miter;stroke-miterlimit:4;stroke-dasharray:none;stroke-dashoffset:0;stroke-opacity:1;color-rendering:auto;image-rendering:auto;shape-rendering:auto;text-rendering:auto;enable-background:accumulate" id="rect828" d="M 3 1 L 3.0507812 7.9746094 C 3.0507812 7.9746094 3.0053822 9.1866738 3.6054688 10.433594 C 4.2055554 11.680524 5.6457739 13 8 13 C 10.354226 13 11.809907 11.690862 12.4375 10.451172 C 13.065093 9.2114919 13.050781 8 13.050781 8 L 13 1 L 11 1 L 11.050781 8 C 11.050781 8 11.037252 8.7885081 10.652344 9.5488281 C 10.267435 10.309138 9.6957927 11 8 11 C 6.3042069 11 5.7706209 10.319476 5.4082031 9.5664062 C 5.0457852 8.8133262 5.0507812 8.0253906 5.0507812 8.0253906 L 5.0507812 8.0117188 L 5 1 L 3 1 z M 2 14 L 2 16 L 14 16 L 14 14 L 2 14 z" transform="translate(0,284)"/></g></svg>