<svg xmlns="http://www.w3.org/2000/svg" xmlns:osb="http://www.openswatchbook.org/uri/2009/osb" xmlns:svg="http://www.w3.org/2000/svg" id="svg11300" width="16" height="16" version="1.0" style="display:inline;enable-background:new"><defs id="defs3"><linearGradient id="linearGradient5606" osb:paint="solid"><stop id="stop5608" offset="0" style="stop-color:#000;stop-opacity:1"/></linearGradient></defs><metadata id="metadata4"/><g style="display:inline" id="layer1" transform="translate(0,-284)"><path style="opacity:1;fill:#bebebe;fill-opacity:1;stroke:none;stroke-width:2;stroke-linecap:round;stroke-linejoin:round;stroke-miterlimit:4;stroke-dasharray:none;stroke-opacity:1" id="path4189" d="M 7 0 C 6.446 0 6 0.446 6 1 L 6 2.2949219 A 7 7 0 0 0 1 9 A 7 7 0 0 0 8 16 A 7 7 0 0 0 15 9 A 7 7 0 0 0 14.15625 5.6738281 L 14.707031 5.1230469 C 15.098768 4.7313097 15.098768 4.1007215 14.707031 3.7089844 L 13.291016 2.2929688 C 12.899278 1.9012316 12.26869 1.9012316 11.876953 2.2929688 L 11.324219 2.8476562 A 7 7 0 0 0 10 2.2988281 L 10 1 C 10 0.446 9.554 3.8684334e-19 9 0 L 7 0 z M 8 4 A 5 5 0 0 1 13 9 A 5 5 0 0 1 8 14 A 5 5 0 0 1 3 9 A 5 5 0 0 1 8 4 z M 5.9902344 5.9902344 A 1.0001 1.0001 0 0 0 5.2929688 7.7070312 L 7.2929688 9.7070312 A 1.0001 1.0001 0 1 0 8.7070312 8.2929688 L 6.7070312 6.2929688 A 1.0001 1.0001 0 0 0 5.9902344 5.9902344 z" transform="translate(0,284)"/></g></svg>