<svg xmlns="http://www.w3.org/2000/svg" xmlns:osb="http://www.openswatchbook.org/uri/2009/osb" xmlns:svg="http://www.w3.org/2000/svg" id="svg11300" width="16" height="16" version="1.0" style="display:inline;enable-background:new"><defs id="defs3"><linearGradient id="linearGradient5606" osb:paint="solid"><stop id="stop5608" offset="0" style="stop-color:#000;stop-opacity:1"/></linearGradient></defs><metadata id="metadata4"/><g style="display:inline" id="layer1" transform="translate(0,-284)"><path style="opacity:1;fill:#bebebe;fill-opacity:1;stroke:none;stroke-width:2;stroke-miterlimit:4;stroke-dasharray:none;stroke-opacity:1" id="rect1118-1" d="m 3,1 v 6 2 6 h 6 c 1,0 4,0.125 4,-3.9375 C 13,9.089983 12.262482,8.0864087 11.404297,7.5683594 11.762385,6.9932502 12,6.1952494 12,5.0625 12,1 9,1 8,1 Z m 3,3 c 3,0 3,-5e-6 3,1.015625 C 9,6.031025 9,6 6,6 Z m 0,5 c 4,0 4,1.975e-4 4,1.523438 C 9.9999996,12.046677 10,12 6,12 Z" transform="translate(0,284)"/></g></svg>