<svg xmlns="http://www.w3.org/2000/svg" xmlns:osb="http://www.openswatchbook.org/uri/2009/osb" xmlns:svg="http://www.w3.org/2000/svg" id="svg11300" width="16" height="16" version="1.0" style="display:inline;enable-background:new"><defs id="defs3"><marker id="Torso" orient="auto" refX="0" refY="0" style="overflow:visible"><g id="g4439" transform="scale(0.7)" style="stroke:#bebebe;stroke-opacity:1;fill:#bebebe;fill-opacity:1"><path id="path4441" d="M -4.7792281,-3.2395420 C -2.4288541,-2.8736027 0.52103922,-1.3019943 0.25792722,0.38794346 C -0.0051877922,2.0778819 -2.2126741,2.6176539 -4.5630471,2.2517169 C -6.9134221,1.8857769 -8.5210350,0.75201414 -8.2579220,-0.93792336 C -7.9948090,-2.6278615 -7.1296041,-3.6054813 -4.7792281,-3.2395420 z" style="fill:#bebebe;fill-opacity:1;fill-rule:evenodd;stroke:#bebebe;stroke-width:1.25;stroke-opacity:1"/><path id="path4443" d="M 4.4598789,0.088665736 C -2.5564571,-4.3783320 5.2248769,-3.9061806 -0.84829578,-8.7197331" style="fill:#bebebe;fill-opacity:1;fill-rule:evenodd;stroke:#bebebe;stroke-width:1pt;stroke-opacity:1"/><path id="path4445" d="M 4.9298719,0.057520736 C -1.3872731,1.7494689 1.8027579,5.4782079 -4.9448731,7.5462725" style="fill:#bebebe;fill-opacity:1;fill-rule:evenodd;stroke:#bebebe;stroke-width:1pt;stroke-opacity:1"/><rect id="rect4447" width="2.637" height="2.761" x="-10.392" y="-1.741" transform="matrix(0.527536,-0.849533,0.887668,0.460484,0,0)" style="fill-rule:evenodd;stroke-width:1pt;stroke:#bebebe;stroke-opacity:1;fill:#bebebe;fill-opacity:1"/><rect id="rect4449" width="2.733" height="2.861" x="4.959" y="-7.963" transform="matrix(0.671205,-0.741272,0.790802,0.612072,0,0)" style="fill-rule:evenodd;stroke-width:1pt;stroke:#bebebe;stroke-opacity:1;fill:#bebebe;fill-opacity:1"/><path id="path4451" d="M 16.779951 -28.685045 A 0.60731727 0.60731727 0 1 0 15.565317,-28.685045 A 0.60731727 0.60731727 0 1 0 16.779951 -28.685045 z" transform="matrix(0,-1.109517,1.109517,0,25.96648,19.71619)" style="fill:#bebebe;fill-opacity:1;fill-rule:evenodd;stroke:#bebebe;stroke-width:1pt;stroke-opacity:1"/><path id="path4453" d="M 16.779951 -28.685045 A 0.60731727 0.60731727 0 1 0 15.565317,-28.685045 A 0.60731727 0.60731727 0 1 0 16.779951 -28.685045 z" transform="matrix(0,-1.109517,1.109517,0,26.82450,16.99126)" style="fill:#bebebe;fill-opacity:1;fill-rule:evenodd;stroke:#bebebe;stroke-width:1pt;stroke-opacity:1"/></g></marker><marker id="Arrow2Sstart" orient="auto" refX="0" refY="0" style="overflow:visible"><path id="path4257" style="fill-rule:evenodd;stroke-width:.625;stroke-linejoin:round;stroke:#bebebe;stroke-opacity:1;fill:#bebebe;fill-opacity:1" d="M 8.7185878,4.0337352 L -2.2072895,0.016013256 L 8.7185884,-4.0017078 C 6.9730900,-1.6296469 6.9831476,1.6157441 8.7185878,4.0337352 z" transform="scale(0.3) translate(-2.3,0)"/></marker><marker id="DiamondS" orient="auto" refX="0" refY="0" style="overflow:visible"><path id="path4312" d="M 0,-7.0710768 L -7.0710894,0 L 0,7.0710589 L 7.0710462,0 L 0,-7.0710768 z" style="fill-rule:evenodd;stroke:#bebebe;stroke-width:1pt;stroke-opacity:1;fill:#bebebe;fill-opacity:1" transform="scale(0.2)"/></marker><marker id="Arrow2Mstart" orient="auto" refX="0" refY="0" style="overflow:visible"><path id="path4251" style="fill-rule:evenodd;stroke-width:.625;stroke-linejoin:round;stroke:#bebebe;stroke-opacity:1;fill:#bebebe;fill-opacity:1" d="M 8.7185878,4.0337352 L -2.2072895,0.016013256 L 8.7185884,-4.0017078 C 6.9730900,-1.6296469 6.9831476,1.6157441 8.7185878,4.0337352 z" transform="scale(0.6) translate(0,0)"/></marker><marker id="Arrow1Lstart" orient="auto" refX="0" refY="0" style="overflow:visible"><path id="path4227" d="M 0.0,0.0 L 5.0,-5.0 L -12.5,0.0 L 5.0,5.0 L 0.0,0.0 z" style="fill-rule:evenodd;stroke:#bebebe;stroke-width:1pt;stroke-opacity:1;fill:#bebebe;fill-opacity:1" transform="scale(0.8) translate(12.5,0)"/></marker><linearGradient id="linearGradient5606" osb:paint="solid"><stop id="stop5608" offset="0" style="stop-color:#000;stop-opacity:1"/></linearGradient></defs><metadata id="metadata4"/><g style="display:inline" id="layer1" transform="translate(0,-284)"><path style="display:inline;opacity:1;fill:#bebebe;fill-opacity:1;stroke:none;stroke-width:2;stroke-linecap:round;stroke-linejoin:round;stroke-miterlimit:4;stroke-dasharray:none;stroke-opacity:1;enable-background:new" id="path4469-2" d="M 7.9804688 -0.009765625 A 1.0001 1.0001 0 0 0 7.2929688 0.29296875 L 5.2929688 2.2929688 A 1.0001 1.0001 0 0 0 5.2929688 3.7070312 L 7.2929688 5.7070312 A 1.0001 1.0001 0 1 0 8.7070312 4.2929688 L 8.4472656 4.0332031 C 10.288257 4.1983278 11.902053 5.3547306 12.619141 7.0859375 C 13.394144 8.9569575 12.967176 11.103136 11.535156 12.535156 C 10.103136 13.967176 7.9569635 14.394141 6.0859375 13.619141 C 4.2149115 12.844141 2.999999 11.02518 3 9 A 1.0001 1.0001 0 1 0 1 9 C 0.99999864 11.82836 2.7072441 14.384427 5.3203125 15.466797 C 7.9333809 16.549157 10.949264 15.949179 12.949219 13.949219 C 14.949173 11.949259 15.549164 8.9333825 14.466797 6.3203125 C 13.434253 3.8275293 11.056588 2.1776194 8.3847656 2.0292969 L 8.7070312 1.7070312 A 1.0001 1.0001 0 0 0 7.9804688 -0.009765625 z M 9.9804688 6.9960938 A 1.0001 1.0001 0 0 0 9.2929688 7.2988281 L 7.8027344 8.7890625 L 6.4472656 8.1113281 A 1.0001163 1.0001163 0 1 0 5.5527344 9.9003906 L 7.5527344 10.900391 A 1.0001 1.0001 0 0 0 8.7070312 10.712891 L 10.707031 8.7128906 A 1.0001 1.0001 0 0 0 9.9804688 6.9960938 z" transform="translate(0,284)"/></g></svg>