<svg xmlns="http://www.w3.org/2000/svg" xmlns:osb="http://www.openswatchbook.org/uri/2009/osb" xmlns:svg="http://www.w3.org/2000/svg" id="svg11300" width="16" height="16" version="1.0" style="display:inline;enable-background:new"><defs id="defs3"><linearGradient id="linearGradient5606" osb:paint="solid"><stop id="stop5608" offset="0" style="stop-color:#000;stop-opacity:1"/></linearGradient></defs><metadata id="metadata4"/><g style="display:inline" id="layer1" transform="translate(0,-284)"><path style="display:inline;opacity:1;fill:#bebebe;fill-opacity:1;stroke:none;stroke-width:2;stroke-linecap:round;stroke-linejoin:round;stroke-miterlimit:4;stroke-dasharray:none;stroke-opacity:1;enable-background:new" id="rect4969-2" d="m 8,284 c -1.108,0 -2,0.892 -2,2 v 8 c 0,1.108 0.892,2 2,2 h 6 c 1.108,0 2,-0.892 2,-2 v -8 c 0,-1.108 -0.892,-2 -2,-2 z m 2.06521,2 h 1.859601 l 2.593123,8 h -1.630859 l -0.572622,-1.99023 h -2.625 L 9.112543,294 h -1.63086 z m 0.936743,1.25 -1.0149083,3.75 h 2.0470183 z"/><path style="display:inline;opacity:.6;fill:#bebebe;fill-opacity:1;stroke:none;stroke-width:2;stroke-linecap:round;stroke-linejoin:round;stroke-miterlimit:4;stroke-dasharray:none;stroke-opacity:1;enable-background:new" id="rect5040-8" d="m 2,288 c -1.108,0 -2,0.892 -2,2 v 8 c 0,1.108 0.892,2 2,2 h 6 c 1.108,0 1,-0.892 1,-2 v -1 c 0,0 -0.404431,1.32699 -1.677734,1.51562 L 6.619141,297.40625 C 7.23317,297.33875 7.725607,297.19131 8.130859,297 H 7 c -0.29047,0 -0.563899,-0.0634 -0.8125,-0.17383 -0.0056,0.005 -0.01194,0.011 -0.01758,0.0156 0.07467,0.27734 0.160764,0.53306 0.246094,0.78906 l -1.216797,0.36133 c -0.04267,-0.128 -0.096,-0.27645 -0.138672,-0.42578 -0.512001,0.256 -1.076193,0.42578 -1.630859,0.42578 -0.778667,0 -1.429688,-0.46759 -1.429688,-1.54492 0,-1.344 1.528,-2.77347 3,-3.4668 0.032,-0.448 -0.04267,-1.55377 0,-1.98044 h -2 v -1 h 2 v -2 z m 2.570312,6.24805 c -0.789334,0.53334 -1.322265,1.34406 -1.322265,1.9414 0,0.33066 0.1489,0.51367 0.490234,0.51367 0.298666,0 0.661974,-0.11779 1.056641,-0.34179 -0.117333,-0.66133 -0.20328,-1.38794 -0.22461,-2.11328 z"/></g></svg>