<svg xmlns="http://www.w3.org/2000/svg" xmlns:osb="http://www.openswatchbook.org/uri/2009/osb" xmlns:svg="http://www.w3.org/2000/svg" id="svg11300" width="16" height="16" version="1.0" style="display:inline;enable-background:new"><defs id="defs3"><linearGradient id="linearGradient5606" osb:paint="solid"><stop id="stop5608" offset="0" style="stop-color:#000;stop-opacity:1"/></linearGradient></defs><metadata id="metadata4"/><g style="display:inline" id="layer1" transform="translate(0,-284)"><path style="opacity:1;fill:#bebebe;fill-opacity:1;stroke:none;stroke-width:2;stroke-miterlimit:4;stroke-dasharray:none;stroke-opacity:1" id="rect828" d="M 7 1 C 6.446 1 6 1.446 6 2 C 6 2.554 6.446 3 7 3 L 8.6113281 3 L 5.2792969 13 L 3 13 C 2.446 13 2 13.446 2 14 C 2 14.554 2.446 15 3 15 L 9 15 C 9.554 15 10 14.554 10 14 C 10 13.446 9.554 13 9 13 L 7.3886719 13 L 10.720703 3 L 13 3 C 13.554 3 14 2.554 14 2 C 14 1.446 13.554 1 13 1 L 7 1 z" transform="translate(0,284)"/></g></svg>